<svg xmlns="http://www.w3.org/2000/svg" xmlns:xlink="http://www.w3.org/1999/xlink" width="220" zoomAndPan="magnify" viewBox="0 0 165 33.749998" height="45" preserveAspectRatio="xMidYMid meet" version="1.0"><defs><g/><clipPath id="5f504616c8"><path d="M 160 21 L 164.390625 21 L 164.390625 25 L 160 25 Z M 160 21 " clip-rule="nonzero"/></clipPath></defs><g fill="#ffffff" fill-opacity="1"><g transform="translate(5.159801, 24.175913)"><g><path d="M 11.125 -3.203125 L 4.578125 -3.203125 L 3.453125 0 L 0.765625 0 L 6.375 -15.6875 L 9.34375 -15.6875 L 14.953125 0 L 12.25 0 Z M 10.40625 -5.296875 L 7.859375 -12.578125 L 5.296875 -5.296875 Z M 10.40625 -5.296875 "/></g></g></g><g fill="#ffffff" fill-opacity="1"><g transform="translate(19.842764, 24.175913)"><g><path d="M 4.265625 -10.5625 C 4.691406 -11.164062 5.285156 -11.660156 6.046875 -12.046875 C 6.804688 -12.429688 7.648438 -12.625 8.578125 -12.625 C 9.679688 -12.625 10.675781 -12.359375 11.5625 -11.828125 C 12.445312 -11.304688 13.144531 -10.5625 13.65625 -9.59375 C 14.164062 -8.625 14.421875 -7.515625 14.421875 -6.265625 C 14.421875 -5.015625 14.164062 -3.894531 13.65625 -2.90625 C 13.144531 -1.925781 12.441406 -1.160156 11.546875 -0.609375 C 10.648438 -0.0664062 9.660156 0.203125 8.578125 0.203125 C 7.617188 0.203125 6.765625 0.015625 6.015625 -0.359375 C 5.273438 -0.734375 4.691406 -1.210938 4.265625 -1.796875 L 4.265625 0 L 1.6875 0 L 1.6875 -16.671875 L 4.265625 -16.671875 Z M 11.8125 -6.265625 C 11.8125 -7.117188 11.632812 -7.859375 11.28125 -8.484375 C 10.925781 -9.109375 10.457031 -9.582031 9.875 -9.90625 C 9.300781 -10.226562 8.679688 -10.390625 8.015625 -10.390625 C 7.367188 -10.390625 6.753906 -10.222656 6.171875 -9.890625 C 5.597656 -9.554688 5.132812 -9.070312 4.78125 -8.4375 C 4.4375 -7.8125 4.265625 -7.070312 4.265625 -6.21875 C 4.265625 -5.363281 4.4375 -4.613281 4.78125 -3.96875 C 5.132812 -3.332031 5.597656 -2.847656 6.171875 -2.515625 C 6.753906 -2.191406 7.367188 -2.03125 8.015625 -2.03125 C 8.679688 -2.03125 9.300781 -2.195312 9.875 -2.53125 C 10.457031 -2.875 10.925781 -3.367188 11.28125 -4.015625 C 11.632812 -4.660156 11.8125 -5.410156 11.8125 -6.265625 Z M 11.8125 -6.265625 "/></g></g></g><g fill="#ffffff" fill-opacity="1"><g transform="translate(34.097832, 24.175913)"><g><path d="M 0.828125 -6.265625 C 0.828125 -7.515625 1.085938 -8.617188 1.609375 -9.578125 C 2.128906 -10.535156 2.832031 -11.28125 3.71875 -11.8125 C 4.613281 -12.351562 5.613281 -12.625 6.71875 -12.625 C 7.53125 -12.625 8.328125 -12.445312 9.109375 -12.09375 C 9.898438 -11.738281 10.53125 -11.269531 11 -10.6875 L 11 -16.671875 L 13.59375 -16.671875 L 13.59375 0 L 11 0 L 11 -1.875 C 10.570312 -1.269531 9.988281 -0.769531 9.25 -0.375 C 8.507812 0.0078125 7.65625 0.203125 6.6875 0.203125 C 5.601562 0.203125 4.613281 -0.0664062 3.71875 -0.609375 C 2.832031 -1.160156 2.128906 -1.925781 1.609375 -2.90625 C 1.085938 -3.894531 0.828125 -5.015625 0.828125 -6.265625 Z M 11 -6.21875 C 11 -7.070312 10.820312 -7.8125 10.46875 -8.4375 C 10.113281 -9.070312 9.648438 -9.554688 9.078125 -9.890625 C 8.503906 -10.222656 7.890625 -10.390625 7.234375 -10.390625 C 6.566406 -10.390625 5.945312 -10.226562 5.375 -9.90625 C 4.8125 -9.582031 4.351562 -9.109375 4 -8.484375 C 3.644531 -7.859375 3.46875 -7.117188 3.46875 -6.265625 C 3.46875 -5.410156 3.644531 -4.660156 4 -4.015625 C 4.351562 -3.367188 4.816406 -2.875 5.390625 -2.53125 C 5.972656 -2.195312 6.585938 -2.03125 7.234375 -2.03125 C 7.890625 -2.03125 8.503906 -2.191406 9.078125 -2.515625 C 9.648438 -2.847656 10.113281 -3.332031 10.46875 -3.96875 C 10.820312 -4.613281 11 -5.363281 11 -6.21875 Z M 11 -6.21875 "/></g></g></g><g fill="#ffffff" fill-opacity="1"><g transform="translate(48.3529, 24.175913)"><g><path d="M 12.9375 -12.421875 L 12.9375 0 L 10.359375 0 L 10.359375 -1.46875 C 9.953125 -0.957031 9.421875 -0.550781 8.765625 -0.25 C 8.117188 0.0390625 7.425781 0.1875 6.6875 0.1875 C 5.71875 0.1875 4.84375 -0.015625 4.0625 -0.421875 C 3.289062 -0.828125 2.679688 -1.425781 2.234375 -2.21875 C 1.796875 -3.019531 1.578125 -3.984375 1.578125 -5.109375 L 1.578125 -12.421875 L 4.125 -12.421875 L 4.125 -5.5 C 4.125 -4.382812 4.398438 -3.53125 4.953125 -2.9375 C 5.515625 -2.34375 6.273438 -2.046875 7.234375 -2.046875 C 8.191406 -2.046875 8.953125 -2.34375 9.515625 -2.9375 C 10.078125 -3.53125 10.359375 -4.382812 10.359375 -5.5 L 10.359375 -12.421875 Z M 12.9375 -12.421875 "/></g></g></g><g fill="#ffffff" fill-opacity="1"><g transform="translate(61.954863, 24.175913)"><g><path d="M 4.265625 -16.671875 L 4.265625 0 L 1.6875 0 L 1.6875 -16.671875 Z M 4.265625 -16.671875 "/></g></g></g><g fill="#ffffff" fill-opacity="1"><g transform="translate(66.886351, 24.175913)"><g/></g></g><g fill="#f13024" fill-opacity="1"><g transform="translate(71.733065, 24.175913)"><g><path d="M 18.1875 -15.65625 L 18.1875 0 L 15.609375 0 L 15.609375 -10.71875 L 10.84375 0 L 9.0625 0 L 4.265625 -10.71875 L 4.265625 0 L 1.6875 0 L 1.6875 -15.65625 L 4.46875 -15.65625 L 9.953125 -3.375 L 15.4375 -15.65625 Z M 18.1875 -15.65625 "/></g></g></g><g fill="#f13024" fill-opacity="1"><g transform="translate(90.582355, 24.175913)"><g><path d="M 0.828125 -6.265625 C 0.828125 -7.515625 1.085938 -8.617188 1.609375 -9.578125 C 2.128906 -10.535156 2.832031 -11.28125 3.71875 -11.8125 C 4.613281 -12.351562 5.601562 -12.625 6.6875 -12.625 C 7.664062 -12.625 8.519531 -12.429688 9.25 -12.046875 C 9.976562 -11.660156 10.5625 -11.179688 11 -10.609375 L 11 -12.421875 L 13.59375 -12.421875 L 13.59375 0 L 11 0 L 11 -1.84375 C 10.5625 -1.257812 9.96875 -0.769531 9.21875 -0.375 C 8.46875 0.0078125 7.609375 0.203125 6.640625 0.203125 C 5.578125 0.203125 4.601562 -0.0664062 3.71875 -0.609375 C 2.832031 -1.160156 2.128906 -1.925781 1.609375 -2.90625 C 1.085938 -3.894531 0.828125 -5.015625 0.828125 -6.265625 Z M 11 -6.21875 C 11 -7.070312 10.820312 -7.8125 10.46875 -8.4375 C 10.113281 -9.070312 9.648438 -9.554688 9.078125 -9.890625 C 8.503906 -10.222656 7.890625 -10.390625 7.234375 -10.390625 C 6.566406 -10.390625 5.945312 -10.226562 5.375 -9.90625 C 4.8125 -9.582031 4.351562 -9.109375 4 -8.484375 C 3.644531 -7.859375 3.46875 -7.117188 3.46875 -6.265625 C 3.46875 -5.410156 3.644531 -4.660156 4 -4.015625 C 4.351562 -3.367188 4.816406 -2.875 5.390625 -2.53125 C 5.972656 -2.195312 6.585938 -2.03125 7.234375 -2.03125 C 7.890625 -2.03125 8.503906 -2.191406 9.078125 -2.515625 C 9.648438 -2.847656 10.113281 -3.332031 10.46875 -3.96875 C 10.820312 -4.613281 11 -5.363281 11 -6.21875 Z M 11 -6.21875 "/></g></g></g><g fill="#f13024" fill-opacity="1"><g transform="translate(104.837424, 24.175913)"><g><path d="M 7.953125 -12.625 C 8.929688 -12.625 9.804688 -12.421875 10.578125 -12.015625 C 11.347656 -11.609375 11.953125 -11.003906 12.390625 -10.203125 C 12.828125 -9.410156 13.046875 -8.453125 13.046875 -7.328125 L 13.046875 0 L 10.5 0 L 10.5 -6.9375 C 10.5 -8.050781 10.21875 -8.90625 9.65625 -9.5 C 9.101562 -10.09375 8.347656 -10.390625 7.390625 -10.390625 C 6.429688 -10.390625 5.671875 -10.09375 5.109375 -9.5 C 4.546875 -8.90625 4.265625 -8.050781 4.265625 -6.9375 L 4.265625 0 L 1.6875 0 L 1.6875 -12.421875 L 4.265625 -12.421875 L 4.265625 -11 C 4.679688 -11.507812 5.210938 -11.90625 5.859375 -12.1875 C 6.515625 -12.476562 7.210938 -12.625 7.953125 -12.625 Z M 7.953125 -12.625 "/></g></g></g><g fill="#f13024" fill-opacity="1"><g transform="translate(118.439385, 24.175913)"><g><path d="M 7.953125 -12.625 C 8.929688 -12.625 9.804688 -12.421875 10.578125 -12.015625 C 11.347656 -11.609375 11.953125 -11.003906 12.390625 -10.203125 C 12.828125 -9.410156 13.046875 -8.453125 13.046875 -7.328125 L 13.046875 0 L 10.5 0 L 10.5 -6.9375 C 10.5 -8.050781 10.21875 -8.90625 9.65625 -9.5 C 9.101562 -10.09375 8.347656 -10.390625 7.390625 -10.390625 C 6.429688 -10.390625 5.671875 -10.09375 5.109375 -9.5 C 4.546875 -8.90625 4.265625 -8.050781 4.265625 -6.9375 L 4.265625 0 L 1.6875 0 L 1.6875 -12.421875 L 4.265625 -12.421875 L 4.265625 -11 C 4.679688 -11.507812 5.210938 -11.90625 5.859375 -12.1875 C 6.515625 -12.476562 7.210938 -12.625 7.953125 -12.625 Z M 7.953125 -12.625 "/></g></g></g><g fill="#f13024" fill-opacity="1"><g transform="translate(132.041349, 24.175913)"><g><path d="M 0.828125 -6.265625 C 0.828125 -7.515625 1.085938 -8.617188 1.609375 -9.578125 C 2.128906 -10.535156 2.832031 -11.28125 3.71875 -11.8125 C 4.613281 -12.351562 5.601562 -12.625 6.6875 -12.625 C 7.664062 -12.625 8.519531 -12.429688 9.25 -12.046875 C 9.976562 -11.660156 10.5625 -11.179688 11 -10.609375 L 11 -12.421875 L 13.59375 -12.421875 L 13.59375 0 L 11 0 L 11 -1.84375 C 10.5625 -1.257812 9.96875 -0.769531 9.21875 -0.375 C 8.46875 0.0078125 7.609375 0.203125 6.640625 0.203125 C 5.578125 0.203125 4.601562 -0.0664062 3.71875 -0.609375 C 2.832031 -1.160156 2.128906 -1.925781 1.609375 -2.90625 C 1.085938 -3.894531 0.828125 -5.015625 0.828125 -6.265625 Z M 11 -6.21875 C 11 -7.070312 10.820312 -7.8125 10.46875 -8.4375 C 10.113281 -9.070312 9.648438 -9.554688 9.078125 -9.890625 C 8.503906 -10.222656 7.890625 -10.390625 7.234375 -10.390625 C 6.566406 -10.390625 5.945312 -10.226562 5.375 -9.90625 C 4.8125 -9.582031 4.351562 -9.109375 4 -8.484375 C 3.644531 -7.859375 3.46875 -7.117188 3.46875 -6.265625 C 3.46875 -5.410156 3.644531 -4.660156 4 -4.015625 C 4.351562 -3.367188 4.816406 -2.875 5.390625 -2.53125 C 5.972656 -2.195312 6.585938 -2.03125 7.234375 -2.03125 C 7.890625 -2.03125 8.503906 -2.191406 9.078125 -2.515625 C 9.648438 -2.847656 10.113281 -3.332031 10.46875 -3.96875 C 10.820312 -4.613281 11 -5.363281 11 -6.21875 Z M 11 -6.21875 "/></g></g></g><g fill="#f13024" fill-opacity="1"><g transform="translate(146.296418, 24.175913)"><g><path d="M 7.953125 -12.625 C 8.929688 -12.625 9.804688 -12.421875 10.578125 -12.015625 C 11.347656 -11.609375 11.953125 -11.003906 12.390625 -10.203125 C 12.828125 -9.410156 13.046875 -8.453125 13.046875 -7.328125 L 13.046875 0 L 10.5 0 L 10.5 -6.9375 C 10.5 -8.050781 10.21875 -8.90625 9.65625 -9.5 C 9.101562 -10.09375 8.347656 -10.390625 7.390625 -10.390625 C 6.429688 -10.390625 5.671875 -10.09375 5.109375 -9.5 C 4.546875 -8.90625 4.265625 -8.050781 4.265625 -6.9375 L 4.265625 0 L 1.6875 0 L 1.6875 -12.421875 L 4.265625 -12.421875 L 4.265625 -11 C 4.679688 -11.507812 5.210938 -11.90625 5.859375 -12.1875 C 6.515625 -12.476562 7.210938 -12.625 7.953125 -12.625 Z M 7.953125 -12.625 "/></g></g></g><g clip-path="url(#5f504616c8)"><g fill="#f13024" fill-opacity="1"><g transform="translate(159.898382, 24.175913)"><g><path d="M 2.71875 0.15625 C 2.257812 0.15625 1.867188 0 1.546875 -0.3125 C 1.234375 -0.625 1.078125 -1.015625 1.078125 -1.484375 C 1.078125 -1.953125 1.234375 -2.34375 1.546875 -2.65625 C 1.867188 -2.96875 2.257812 -3.125 2.71875 -3.125 C 3.175781 -3.125 3.5625 -2.96875 3.875 -2.65625 C 4.1875 -2.34375 4.34375 -1.953125 4.34375 -1.484375 C 4.34375 -1.015625 4.1875 -0.625 3.875 -0.3125 C 3.5625 0 3.175781 0.15625 2.71875 0.15625 Z M 2.71875 0.15625 "/></g></g></g></g></svg>